<?xml version="1.0" encoding="UTF-8"?>
<svg xmlns="http://www.w3.org/2000/svg" viewBox="0 0 100 100" width="100" height="100">
  <!-- Shield background -->
  <path d="M50,5 L85,20 L85,40 C85,65 70,85 50,95 C30,85 15,65 15,40 L15,20 Z" fill="#2c3e50" />
  
  <!-- Shield inner -->
  <path d="M50,10 L80,23 L80,40 C80,62 67,80 50,90 C33,80 20,62 20,40 L20,23 Z" fill="#3498db" />
  
  <!-- Fish icon -->
  <path d="M65,45 C70,45 75,50 75,55 C75,60 70,65 65,65 C60,65 55,60 55,55 C55,50 60,45 65,45 Z" fill="#e74c3c" />
  <path d="M60,55 L70,55" stroke="white" stroke-width="3" stroke-linecap="round" />
  <path d="M65,50 L65,60" stroke="white" stroke-width="3" stroke-linecap="round" />
  
  <!-- Fish tail -->
  <path d="M45,55 L35,50 L35,60 Z" fill="#e74c3c" />
</svg> 